<?xml version="1.0" encoding="UTF-8" standalone="no"?>
<!-- Created with Inkscape (http://www.inkscape.org/) -->

<svg
   width="520mm"
   height="250mm"
   viewBox="0 0 520 250"
   version="1.1"
   id="svg5"
   xml:space="preserve"
   inkscape:version="1.2.1 (9c6d41e410, 2022-07-14)"
   sodipodi:docname="WOL_Diagram.svg"
   xmlns:inkscape="http://www.inkscape.org/namespaces/inkscape"
   xmlns:sodipodi="http://sodipodi.sourceforge.net/DTD/sodipodi-0.dtd"
   xmlns="http://www.w3.org/2000/svg"
   xmlns:svg="http://www.w3.org/2000/svg"><sodipodi:namedview
     id="namedview7"
     pagecolor="#ffffff"
     bordercolor="#000000"
     borderopacity="0.25"
     inkscape:showpageshadow="2"
     inkscape:pageopacity="0.0"
     inkscape:pagecheckerboard="0"
     inkscape:deskcolor="#d1d1d1"
     inkscape:document-units="mm"
     showgrid="false"
     inkscape:zoom="0.36257716"
     inkscape:cx="648.1379"
     inkscape:cy="186.16727"
     inkscape:window-width="1920"
     inkscape:window-height="1001"
     inkscape:window-x="-9"
     inkscape:window-y="-9"
     inkscape:window-maximized="1"
     inkscape:current-layer="layer1" /><defs
     id="defs2"><marker
       style="overflow:visible"
       id="TriangleStart"
       refX="0"
       refY="0"
       orient="auto-start-reverse"
       inkscape:stockid="TriangleStart"
       markerWidth="5.3244081"
       markerHeight="6.155385"
       viewBox="0 0 5.3244081 6.1553851"
       inkscape:isstock="true"
       inkscape:collect="always"
       preserveAspectRatio="xMidYMid"><path
         transform="scale(0.5)"
         style="fill:context-stroke;fill-rule:evenodd;stroke:context-stroke;stroke-width:1pt"
         d="M 5.77,0 -2.88,5 V -5 Z"
         id="path135" /></marker><marker
       style="overflow:visible"
       id="TriangleStart-6"
       refX="0"
       refY="0"
       orient="auto-start-reverse"
       inkscape:stockid="TriangleStart"
       markerWidth="5.3244081"
       markerHeight="6.155385"
       viewBox="0 0 5.3244081 6.1553851"
       inkscape:isstock="true"
       inkscape:collect="always"
       preserveAspectRatio="xMidYMid"><path
         transform="scale(0.5)"
         style="fill:context-stroke;fill-rule:evenodd;stroke:context-stroke;stroke-width:1pt"
         d="M 5.77,0 -2.88,5 V -5 Z"
         id="path135-3" /></marker><marker
       style="overflow:visible"
       id="TriangleStart-2"
       refX="0"
       refY="0"
       orient="auto-start-reverse"
       inkscape:stockid="TriangleStart"
       markerWidth="5.3244081"
       markerHeight="6.155385"
       viewBox="0 0 5.3244081 6.1553851"
       inkscape:isstock="true"
       inkscape:collect="always"
       preserveAspectRatio="xMidYMid"><path
         transform="scale(0.5)"
         style="fill:context-stroke;fill-rule:evenodd;stroke:context-stroke;stroke-width:1pt"
         d="M 5.77,0 -2.88,5 V -5 Z"
         id="path135-39" /></marker><marker
       style="overflow:visible"
       id="TriangleStart-2-4"
       refX="0"
       refY="0"
       orient="auto-start-reverse"
       inkscape:stockid="TriangleStart"
       markerWidth="5.3244081"
       markerHeight="6.155385"
       viewBox="0 0 5.3244081 6.1553851"
       inkscape:isstock="true"
       inkscape:collect="always"
       preserveAspectRatio="xMidYMid"><path
         transform="scale(0.5)"
         style="fill:context-stroke;fill-rule:evenodd;stroke:context-stroke;stroke-width:1pt"
         d="M 5.77,0 -2.88,5 V -5 Z"
         id="path135-39-1" /></marker></defs><g
     inkscape:label="Layer 1"
     inkscape:groupmode="layer"
     id="layer1"><rect
       style="font-variation-settings:normal;fill:#ffffff;fill-opacity:1;fill-rule:evenodd;stroke-width:0.265001;stroke-linecap:butt;stroke-linejoin:miter;stroke-miterlimit:4;stroke-dasharray:none;stroke-dashoffset:0;stroke-opacity:1;stop-color:#000000"
       id="rect275"
       width="515.84637"
       height="247.77217"
       x="1.8821046"
       y="1.1777606"
       rx="10"
       ry="10" /><path
       style="fill:#000000;stroke-width:1"
       d="m 7.7529825,142.92793 c -1.1453394,-0.0405 -1.6696791,-0.20916 -2.1550988,-0.69345 -0.27323,-0.2726 -0.6184297,-0.77539 -0.7348197,-1.07029 l -0.0775,-0.19635 -0.0275,-6.81282 c -0.0151,-3.74704 -0.0227,-10.25507 -0.017,-14.46229 0.0115,-8.46143 -8.3e-4,-7.97862 0.22716,-8.64873 0.13134,-0.38557 0.2780397,-0.62059 0.5961697,-0.95514 0.4666297,-0.49071 0.9336694,-0.78654 1.3729691,-0.86968 0.31455,-0.0595 11.1916282,-0.062 11.8849382,-0.003 1.09542,0.0937 1.95849,0.60746 2.33328,1.38898 0.23605,0.4922 0.3081,0.76845 0.3438,1.31827 0.0333,0.51204 0.0316,17.86618 -0.002,24.79249 -0.0209,4.26361 -0.007,4.04956 -0.30635,4.6614 -0.20271,0.41409 -0.36316,0.62862 -0.63256,0.84581 -0.27291,0.22001 -0.56782,0.3546 -1.04078,0.47498 -0.33125,0.0843 -0.49964,0.10482 -1.07571,0.131 -1.67931,0.0764 -9.3224694,0.14678 -10.6887685,0.0985 z m 5.7395485,-1.15821 c 0.33124,-0.0847 0.58492,-0.23332 0.80202,-0.46982 0.47179,-0.51396 0.56932,-1.23063 0.25315,-1.86012 -0.43642,-0.86888 -1.56458,-1.1507 -2.38057,-0.59468 -0.81888,0.55797 -0.94651,1.71443 -0.27049,2.45093 0.21692,0.23632 0.47181,0.38825 0.79201,0.47208 0.32793,0.0859 0.47334,0.0862 0.80388,0.002 z m -1.11231,-4.23521 c 1.41805,-0.0187 3.62325,-0.049 4.90045,-0.0673 1.27719,-0.0184 2.40284,-0.0334 2.50144,-0.0337 l 0.17929,-2.6e-4 v -12.25956 -12.25966 l -5.57489,-0.003 c -3.0662,-0.002 -6.1708788,-0.009 -6.8992985,-0.0166 l -1.3243991,-0.0134 0.007,10.6286 c 0.004,5.84573 0.0136,11.41075 0.0214,12.36673 l 0.0141,1.73812 1.7981788,-0.0229 c 0.9889894,-0.0126 2.9583888,-0.0381 4.3764388,-0.0569 z m 1.66775,-26.04318 1.23496,-0.0226 v -0.40426 -0.40425 l -1.01595,7e-5 c -0.55877,3e-5 -1.55549,0.0101 -2.21494,0.0225 l -1.19899,0.0225 -0.0219,0.33327 c -0.0245,0.37517 -0.0132,0.43118 0.092,0.45169 0.12484,0.0244 1.82284,0.0249 3.12474,8.3e-4 z M 7.1535328,111.3264 c 0.068,-0.068 0.0872,-0.12149 0.0872,-0.24291 0,-0.1327 -0.0165,-0.1704 -0.11153,-0.25533 -0.24003,-0.21447 -0.5885297,-0.0548 -0.5885297,0.26969 0,0.11165 0.10891,0.26937 0.21814,0.31591 0.1142197,0.0487 0.2997397,0.007 0.3947097,-0.0874 z"
       id="path3417" /><g
       id="g3790"
       inkscape:label="website"
       style="display:inline;stroke-width:1.24194"
       transform="matrix(0.80519479,0,0,0.80519479,11.324271,35.783953)"><rect
         style="font-variation-settings:normal;opacity:1;fill:#ffffff;fill-opacity:1;fill-rule:evenodd;stroke:#000000;stroke-width:3.72581;stroke-linecap:butt;stroke-linejoin:miter;stroke-miterlimit:4;stroke-dasharray:none;stroke-dashoffset:0;stroke-opacity:1;stop-color:#000000;stop-opacity:1"
         id="rect3689"
         width="122.32792"
         height="93.677116"
         x="112.45064"
         y="57.390106"
         rx="12.419355"
         ry="12.419353" /><rect
         style="font-variation-settings:normal;opacity:1;fill:#2b0000;fill-opacity:1;fill-rule:evenodd;stroke-width:0.329581;stroke-linecap:butt;stroke-linejoin:miter;stroke-miterlimit:4;stroke-dasharray:none;stroke-dashoffset:0;stroke-opacity:1;stop-color:#000000;stop-opacity:1"
         id="rect3694"
         width="122.23058"
         height="4.1959457"
         x="112.42238"
         y="76.723358" /><circle
         style="fill:#d43737;fill-opacity:1;fill-rule:evenodd;stroke:none;stroke-width:3.10484;paint-order:stroke markers fill"
         id="path3748"
         cx="125.92403"
         cy="68.88343"
         r="4.6520271" /><circle
         style="fill:#ffcc00;fill-rule:evenodd;stroke:none;stroke-width:3.10484;paint-order:stroke markers fill"
         id="path3748-8"
         cx="141.38313"
         cy="69.01458"
         r="4.6520271" /><circle
         style="fill:#008000;fill-rule:evenodd;stroke:none;stroke-width:3.10484;paint-order:stroke markers fill"
         id="path3748-86"
         cx="156.47603"
         cy="68.885582"
         r="4.6520271" /><text
         xml:space="preserve"
         style="font-size:29.3904px;font-family:sans-serif;-inkscape-font-specification:'sans-serif, Normal';text-align:center;text-anchor:middle;fill:#000000;fill-opacity:1;fill-rule:evenodd;stroke:none;stroke-width:3.72581;stroke-dasharray:none;stroke-opacity:1;paint-order:stroke markers fill"
         x="173.60742"
         y="117.92445"
         id="text3846"><tspan
           sodipodi:role="line"
           id="tspan3844"
           style="font-style:normal;font-variant:normal;font-weight:normal;font-stretch:normal;font-size:29.3904px;font-family:Calibri;-inkscape-font-specification:'Calibri, Normal';font-variant-ligatures:normal;font-variant-caps:normal;font-variant-numeric:normal;font-variant-east-asian:normal;fill:#000000;fill-opacity:1;stroke-width:3.72581"
           x="173.60742"
           y="117.92445">www</tspan></text><circle
         style="fill:none;fill-opacity:1;fill-rule:evenodd;stroke:#008000;stroke-width:4.96774;stroke-dasharray:none;stroke-dashoffset:0;stroke-opacity:1;paint-order:stroke markers fill"
         id="path1971"
         cx="179.56689"
         cy="125"
         r="79.463509"
         transform="translate(-5.6180411,-20.771336)" /><path
         style="fill:none;fill-opacity:1;fill-rule:evenodd;stroke:#008000;stroke-width:4;stroke-dasharray:none;stroke-dashoffset:0;stroke-opacity:1;paint-order:stroke markers fill"
         d="m 204.3434,100.44661 33.7709,24.8108"
         id="path3215"
         sodipodi:nodetypes="cc"
         transform="matrix(1.2419355,0,0,1.2419355,-4.2061498,-44.441362)" /><path
         style="fill:#008000;fill-opacity:1;fill-rule:evenodd;stroke:#008000;stroke-width:4;stroke-dasharray:none;stroke-dashoffset:0;stroke-opacity:1;paint-order:stroke markers fill"
         d="m 200.87991,146.96686 37.50532,-21.89188"
         id="path3217"
         sodipodi:nodetypes="cc"
         transform="matrix(1.2419355,0,0,1.2419355,-4.2061498,-44.441362)" /><ellipse
         style="fill:#008000;fill-opacity:1;fill-rule:evenodd;stroke:#008000;stroke-width:1.2;stroke-dasharray:none;stroke-dashoffset:0;stroke-opacity:1;paint-order:stroke markers fill"
         id="path3539"
         cx="237.65196"
         cy="125.30025"
         rx="1.9027383"
         ry="1.7183497"
         transform="matrix(1.2419355,0,0,1.2419355,-4.2061498,-44.441362)" /></g><g
       id="g2592"
       inkscape:label="LAN"
       transform="translate(7.4083337,-22.848076)"><path
         style="fill:#008000;stroke-width:1"
         d="m 316.8326,139.70805 c 0.11476,-0.11228 0.67306,-0.17661 1.45823,-0.16805 l 1.27227,0.0138 0.0105,-0.9657 c 0.0117,-1.07251 0.17059,-1.33188 0.81164,-1.32489 0.429,0.005 0.4292,0.004 0.44086,-1.06292 0.0101,-0.92492 0.0546,-1.08996 0.33284,-1.235 0.25623,-0.13356 0.38002,-0.11299 0.6121,0.1017 0.22789,0.2108 0.28865,0.47769 0.28042,1.23199 l -0.0105,0.96288 0.49765,0.0535 0.49766,0.0535 0.0329,1.11181 0.0329,1.11181 0.59971,0.007 0.59972,0.006 0.0571,-1.11082 0.0571,-1.11084 0.49871,-0.0426 0.49871,-0.0426 0.0106,-0.97569 c 0.007,-0.68262 0.0838,-1.04725 0.25416,-1.21394 0.28809,-0.28186 0.3086,-0.28408 0.68981,-0.0747 0.24811,0.13629 0.29292,0.3309 0.28311,1.22952 -0.0116,1.06709 -0.0115,1.06761 0.41755,1.07229 0.64104,0.007 0.79424,0.26978 0.78253,1.34228 l -0.0105,0.9657 0.5365,0.006 0.53651,0.006 0.0107,-0.97758 c 0.0113,-1.04178 0.13587,-1.25489 0.78111,-1.33698 0.36076,-0.0459 0.38719,-0.11079 0.44036,-1.08133 0.0467,-0.85159 0.11109,-1.06094 0.36777,-1.19473 0.51543,-0.26865 0.73007,0.0719 0.76808,1.21866 l 0.0338,1.02197 0.53566,0.0825 0.53567,0.0825 0.033,1.12066 0.033,1.12065 0.56845,-0.041 0.56844,-0.041 0.0884,-1.07216 0.0884,-1.07217 0.49871,-0.0426 0.4987,-0.0426 0.0106,-0.97569 c 0.0101,-0.93114 0.23732,-1.45503 0.62905,-1.45075 0.39322,0.004 0.6074,0.53293 0.59713,1.47385 l -0.0107,0.9854 0.45446,0.005 c 0.60638,0.007 0.81155,0.43281 0.71168,1.47833 l -0.0791,0.82813 0.59356,0.006 0.59358,0.007 0.0128,-0.95802 c 0.0153,-1.13769 0.0972,-1.29615 0.70284,-1.35822 0.45499,-0.0466 0.46054,-0.0582 0.5165,-1.07965 0.0444,-0.81105 0.11663,-1.06383 0.33661,-1.17849 0.50848,-0.26503 0.76393,0.12683 0.80023,1.22756 0.0308,0.93282 0.0575,1.00049 0.41553,1.05401 0.64328,0.0961 0.76311,0.31194 0.75175,1.35369 l -0.0107,0.9776 0.5365,0.006 c 0.57577,0.006 0.60243,-0.0501 0.55402,-1.17183 -0.0314,-0.7265 0.24348,-1.11902 0.7794,-1.11317 l 0.45447,0.005 0.0116,-1.06761 c 0.01,-0.89863 0.0589,-1.0922 0.30988,-1.22304 0.38569,-0.20103 0.40616,-0.19837 0.68802,0.0897 0.16668,0.17036 0.23504,0.53658 0.2276,1.2192 l -0.0106,0.97569 0.49766,0.0535 0.49765,0.0535 0.0649,1.07382 0.0649,1.07385 1.37874,0.0917 1.37874,0.0917 -0.0878,8.04748 -0.0878,8.04749 -1.38041,0.0616 -1.38041,0.0616 -0.0884,1.07217 -0.0884,1.07215 -0.4987,0.0426 -0.49871,0.0426 -0.0106,0.97571 c -0.007,0.6826 -0.0838,1.04725 -0.25415,1.21393 -0.28808,0.28186 -0.3086,0.28408 -0.68982,0.0747 -0.24811,-0.13628 -0.29292,-0.33089 -0.28311,-1.22951 l 0.0116,-1.06761 -0.45447,-0.005 c -0.51896,-0.006 -0.80408,-0.40332 -0.75473,-1.05265 0.0873,-1.14913 0.0431,-1.25467 -0.5285,-1.26091 l -0.5365,-0.006 -0.0128,0.95801 c -0.0153,1.13771 -0.0972,1.29615 -0.70284,1.35823 -0.45499,0.0466 -0.46054,0.0582 -0.5165,1.07967 -0.0444,0.81103 -0.11663,1.06382 -0.33661,1.17848 -0.50847,0.26504 -0.76392,-0.12683 -0.80023,-1.22756 -0.0324,-0.98204 -0.0397,-0.99768 -0.49167,-1.05401 -0.60415,-0.0753 -0.68267,-0.23546 -0.67304,-1.37323 l 0.008,-0.95807 -0.53651,-0.006 -0.53649,-0.006 -0.009,0.85316 c -0.0119,1.09505 -0.20317,1.44408 -0.78761,1.4377 l -0.45447,-0.005 -0.0107,0.98542 c -0.0103,0.94091 -0.23595,1.46475 -0.62916,1.46046 -0.39174,-0.004 -0.60741,-0.53299 -0.59724,-1.46413 l 0.0106,-0.9757 -0.49765,-0.0535 -0.49766,-0.0535 -0.0649,-1.07383 -0.0649,-1.07384 -0.56741,-0.0534 -0.56742,-0.0534 -0.0574,1.11967 -0.0575,1.11966 -0.53734,0.0708 -0.53734,0.0708 -0.0546,0.99588 c -0.0603,1.09968 -0.32426,1.48586 -0.82683,1.2098 -0.21742,-0.11943 -0.2841,-0.37374 -0.31082,-1.18554 -0.032,-0.9715 -0.057,-1.03696 -0.41665,-1.09071 -0.64449,-0.0963 -0.76312,-0.31144 -0.75164,-1.36295 l 0.0108,-0.98685 -0.57535,0.0413 -0.57534,0.0413 0.0336,0.89844 c 0.0384,1.0295 -0.13266,1.3234 -0.76636,1.31649 l -0.44109,-0.005 -0.0117,1.06761 c -0.0101,0.92492 -0.0546,1.08997 -0.33283,1.235 -0.25625,0.13356 -0.38003,0.11299 -0.61212,-0.1017 -0.22789,-0.21081 -0.28864,-0.4777 -0.28041,-1.23199 l 0.0105,-0.96288 -0.49766,-0.0535 -0.49765,-0.0535 -0.0329,-1.11182 -0.0329,-1.11182 -0.59972,-0.007 -0.59971,-0.006 -0.0571,1.11084 -0.0571,1.11083 -0.49871,0.0426 -0.49869,0.0426 -0.0105,0.96289 c -0.008,0.75428 -0.0748,1.01979 -0.30723,1.22557 -0.23673,0.20958 -0.36092,0.22744 -0.61418,0.0883 -0.27504,-0.15107 -0.31591,-0.31704 -0.30581,-1.24198 0.0116,-1.06709 0.0115,-1.06761 -0.41755,-1.07229 -0.64104,-0.007 -0.79424,-0.26978 -0.78254,-1.34227 l 0.0106,-0.96572 -1.27228,-0.0138 c -0.78516,-0.009 -1.34193,-0.0851 -1.45421,-0.19983 -0.26226,-0.26805 -0.0947,-15.61812 0.17332,-15.88037 z m 16.01615,15.13031 15.13745,0.12616 0.0761,-6.97448 0.0761,-6.97449 -15.1366,-0.20426 -15.13659,-0.20424 -0.077,7.05262 -0.077,7.05261 z m -13.67138,-12.88508 c 0.0578,-0.0566 6.25347,-0.0358 13.76808,0.0462 10.42232,0.11375 13.70606,0.19322 13.84485,0.33507 0.28184,0.28804 0.14102,11.05995 -0.14766,11.29424 -0.15336,0.12447 -3.91579,0.11958 -13.9122,-0.0181 l -13.70199,-0.18871 0.0218,-5.68294 c 0.0121,-3.12561 0.0692,-5.72922 0.12703,-5.78581 z m 2.50748,10.38111 c 0.90604,0.0338 6.66576,0.0981 12.79936,0.14317 l 11.15203,0.0814 0.0502,-4.5966 0.0502,-4.59659 -2.4524,-0.0438 c -1.34881,-0.0241 -2.59036,-0.0453 -2.75897,-0.0472 -0.16861,-0.002 -4.82477,-0.045 -10.34701,-0.0959 l -10.04043,-0.0925 -0.0501,4.59337 -0.0501,4.59338 z m -0.32032,-12.78991 c 0.54617,-0.0392 0.57563,-0.0685 0.5812,-0.57781 0.006,-0.5093 -0.0232,-0.53922 -0.56845,-0.59034 l -0.57431,-0.0539 -0.007,0.63164 -0.007,0.63165 z m -0.19072,17.47452 c 0.54617,-0.0392 0.57564,-0.0685 0.58119,-0.57779 0.006,-0.5093 -0.0232,-0.53922 -0.56844,-0.59035 l -0.57431,-0.0539 -0.007,0.63165 -0.007,0.63165 z m 4.8273,-17.39485 0.61316,0.007 0.007,-0.61315 c 0.006,-0.59269 -0.0104,-0.61332 -0.50426,-0.61871 -0.63675,-0.007 -0.7162,0.0708 -0.72314,0.70752 -0.005,0.49393 0.0149,0.51118 0.60756,0.51765 z m -0.1521,17.44588 0.57431,0.0539 0.007,-0.62239 c 0.007,-0.60319 -0.009,-0.62256 -0.50417,-0.62797 -0.63935,-0.007 -0.74243,0.0939 -0.69174,0.67681 0.0363,0.4178 0.0998,0.47141 0.61481,0.5197 z m 4.82731,-17.39485 c 0.52373,0.006 0.53667,-0.009 0.5432,-0.60729 0.007,-0.59854 -0.006,-0.61328 -0.52982,-0.61899 -0.52372,-0.006 -0.53665,0.009 -0.54319,0.60727 -0.007,0.59855 0.006,0.61329 0.52981,0.61901 z m -0.19072,17.47453 c 0.52373,0.006 0.53666,-0.009 0.5432,-0.60728 0.007,-0.59855 -0.006,-0.61329 -0.52982,-0.61901 -0.52372,-0.006 -0.53666,0.009 -0.54319,0.6073 -0.007,0.59854 0.006,0.61328 0.52981,0.61899 z m 4.86596,-17.4235 0.61314,0.007 0.007,-0.61316 0.007,-0.61313 -0.61314,-0.007 -0.61315,-0.007 -0.007,0.61313 -0.007,0.61315 z m -0.19072,17.47452 0.61314,0.007 0.007,-0.61314 0.007,-0.61314 -0.61314,-0.007 -0.61315,-0.007 -0.007,0.61314 -0.007,0.61315 z m 4.86595,-17.4235 c 0.52373,0.006 0.53666,-0.009 0.5432,-0.60729 0.007,-0.59853 -0.006,-0.61327 -0.52982,-0.61899 -0.52373,-0.006 -0.53665,0.009 -0.54319,0.60728 -0.007,0.59854 0.006,0.61328 0.52981,0.619 z m -0.19072,17.47453 c 0.52373,0.006 0.53666,-0.009 0.54319,-0.60728 0.007,-0.59854 -0.006,-0.61328 -0.52981,-0.619 -0.52373,-0.006 -0.53665,0.009 -0.54319,0.60729 -0.007,0.59854 0.006,0.61328 0.52981,0.61899 z m 4.8752,-17.4234 0.62241,0.007 -0.0413,-0.57535 c -0.0391,-0.5441 -0.0725,-0.57825 -0.61561,-0.62917 l -0.5743,-0.0539 -0.007,0.62239 -0.007,0.6224 z m -0.23797,17.44494 c 0.54619,-0.0392 0.57565,-0.0685 0.58121,-0.57781 0.006,-0.50929 -0.0232,-0.53921 -0.56846,-0.59033 l -0.57429,-0.0539 -0.007,0.63164 -0.007,0.63165 z"
         id="path3457"
         inkscape:label="Esp8266" /><path
         style="fill:#000000;stroke-width:0.999995"
         d="m 432.87041,133.6003 c -0.80844,-0.38218 -1.3069,-0.87892 -1.76378,-1.75769 -0.30254,-0.5819 -0.32594,-0.78911 -0.32594,-2.88629 0,-2.81278 0.0138,-2.8362 1.73008,-2.93555 l 1.11997,-0.0649 0.0378,-18.54595 c 0.0358,-17.570484 0.0511,-18.580364 0.29204,-19.199984 0.37379,-0.96146 1.26226,-1.89464 2.24777,-2.36086 l 0.84151,-0.39811 h 29.32574 29.32574 l 0.84151,0.39811 c 0.98551,0.46622 1.87398,1.3994 2.24778,2.36086 0.24089,0.61962 0.25624,1.6295 0.29203,19.199984 l 0.0378,18.54595 1.11997,0.0649 c 1.71628,0.0993 1.73008,0.12277 1.73008,2.93555 0,2.09718 -0.0234,2.30439 -0.32594,2.88629 -0.45688,0.87877 -0.95534,1.37551 -1.76378,1.75769 l -0.69658,0.32931 h -32.80864 -32.8086 z m 66.46185,-2.32373 c 0.39204,-0.40886 0.40918,-0.48036 0.40918,-1.70661 v -1.27987 l -14.24492,-0.0354 -14.24492,-0.0355 -2.8e-4,0.52309 c -2.8e-4,0.70132 -0.3839,1.4236 -0.96077,1.80897 -0.46017,0.30745 -0.56878,0.31623 -3.91496,0.31623 -3.34619,0 -3.4548,-0.009 -3.91504,-0.31623 -0.57686,-0.38537 -0.96047,-1.10765 -0.96076,-1.80897 l -2.2e-4,-0.52309 -14.24492,0.0355 -14.24493,0.0354 v 1.27987 c 0,1.22625 0.0172,1.29775 0.40919,1.70661 l 0.40917,0.42673 h 32.54751 32.54749 z m -29.7803,-1.96949 c 0.0919,-0.0919 0.16718,-0.37405 0.16718,-0.62691 v -0.45973 h -3.34355 -3.34356 v 0.45973 c 0,0.25286 0.0753,0.53497 0.16718,0.62691 0.23684,0.23684 6.11591,0.23684 6.35275,0 z m 27.30071,-21.74005 c -0.0363,-18.143784 -0.0411,-18.431414 -0.31546,-18.886774 -0.15325,-0.25432 -0.47411,-0.58346 -0.71303,-0.7314 -0.42557,-0.26356 -1.02318,-0.26901 -29.44859,-0.26901 -28.42541,0 -29.02303,0.006 -29.44861,0.26901 -0.23891,0.14794 -0.55977,0.47708 -0.71302,0.7314 -0.27438,0.45536 -0.27919,0.74299 -0.31546,18.886774 l -0.0368,18.42437 h 30.51392 30.51392 z m -58.72226,17.08072 c -0.24855,-0.12253 -0.57768,-0.42628 -0.7314,-0.67501 -0.27572,-0.44611 -0.2795,-0.67812 -0.2795,-17.13711 0,-16.345034 0.006,-16.693924 0.27387,-17.128024 0.56241,-0.91 -1.71914,-0.84359 28.98221,-0.84359 30.70134,0 28.41978,-0.0664 28.9822,0.84359 0.26829,0.4341 0.27387,0.78299 0.27387,17.128024 0,16.48521 -0.003,16.69031 -0.28082,17.13926 -0.60367,0.97675 1.79685,0.90234 -28.99631,0.89882 -25.16612,-0.003 -27.81462,-0.0241 -28.22412,-0.22596 z m 56.02355,-1.5237 c 0.11052,-0.28803 0.11052,-32.288824 0,-32.576864 -0.0768,-0.19993 -2.65377,-0.22036 -27.77837,-0.22036 -25.12461,0 -27.70165,0.0204 -27.77837,0.22036 -0.11053,0.28804 -0.11053,32.288834 0,32.576864 0.0767,0.19993 2.65376,0.22037 27.77837,0.22037 25.1246,0 27.70164,-0.0204 27.77837,-0.22037 z"
         id="path3485" /><path
         style="fill:#d43737;fill-opacity:1;stroke-width:1"
         d="m 389.27823,157.85984 c -0.12165,-0.0742 -0.27419,-0.19834 -0.33898,-0.27595 -0.0648,-0.0776 -0.1681,-0.28733 -0.22956,-0.46605 -0.0615,-0.17871 -0.11234,-0.52117 -0.11306,-0.76103 -7.4e-4,-0.23986 0.0186,-0.45606 0.043,-0.48044 0.0244,-0.0244 0.60065,0.0662 1.2806,0.20139 0.85901,0.17073 1.23628,0.27198 1.23628,0.33178 0,0.0473 -0.0587,0.24301 -0.13049,0.43483 -0.0718,0.19183 -0.23829,0.47471 -0.37004,0.62863 -0.13176,0.15393 -0.35816,0.33374 -0.50312,0.39958 -0.14497,0.0658 -0.35131,0.12025 -0.45853,0.1209 -0.10723,7.4e-4 -0.29448,-0.0595 -0.41612,-0.13364 z m 1.22844,-2.05479 c -0.1251,-0.0136 -0.47292,-0.085 -0.77295,-0.15861 -0.30003,-0.0736 -0.74665,-0.21571 -0.99248,-0.31576 -0.24584,-0.10004 -0.6613,-0.30452 -0.92325,-0.4544 -0.26195,-0.14987 -0.69194,-0.45326 -0.95552,-0.67419 -0.26359,-0.22093 -0.66,-0.61734 -0.88093,-0.88093 -0.22093,-0.26358 -0.52431,-0.69356 -0.67419,-0.95552 -0.14988,-0.26195 -0.35307,-0.67432 -0.45153,-0.91637 -0.0985,-0.24206 -0.22653,-0.63018 -0.2846,-0.86251 -0.0581,-0.23232 -0.13869,-0.65635 -0.17916,-0.94229 -0.0428,-0.3021 -0.0567,-0.80574 -0.0333,-1.20224 0.0222,-0.3753 0.0986,-0.92589 0.16996,-1.22354 0.0713,-0.29766 0.22279,-0.76556 0.33662,-1.03978 0.11383,-0.27422 0.30869,-0.67404 0.43302,-0.8885 0.12433,-0.21445 0.34902,-0.55075 0.49931,-0.74733 0.1503,-0.19659 0.44517,-0.52901 0.65527,-0.73872 0.2101,-0.20972 0.58671,-0.52678 0.83691,-0.70459 0.2502,-0.17781 0.67423,-0.4341 0.9423,-0.56953 0.26806,-0.13543 0.72134,-0.31976 1.00728,-0.40963 0.28593,-0.0899 0.7448,-0.19943 1.01971,-0.24347 0.31994,-0.0513 0.83447,-0.0673 1.42969,-0.0447 0.64648,0.0246 1.08216,0.0768 1.42961,0.17129 0.27486,0.0747 0.73168,0.23373 1.01516,0.35328 0.28348,0.11956 0.76191,0.37805 1.06318,0.57443 0.30127,0.19638 0.74487,0.54143 0.98576,0.76678 0.2409,0.22535 0.6133,0.64236 0.82755,0.92669 0.21425,0.28434 0.51985,0.78845 0.6791,1.12026 0.15925,0.33181 0.36607,0.87699 0.45961,1.21151 0.13654,0.48833 0.17653,0.80039 0.20283,1.58302 0.0251,0.74545 0.007,1.10951 -0.0748,1.54744 -0.0592,0.31496 -0.18305,0.78286 -0.27533,1.03977 -0.0923,0.25692 -0.26379,0.65721 -0.38112,0.88953 -0.11734,0.23233 -0.36097,0.63153 -0.54139,0.88712 -0.18042,0.25559 -0.51991,0.65657 -0.75442,0.89108 -0.23451,0.23451 -0.60864,0.556 -0.8314,0.71443 -0.22276,0.15842 -0.59511,0.39104 -0.82743,0.51692 -0.23233,0.12588 -0.67098,0.31561 -0.97479,0.42161 -0.30381,0.106 -0.82804,0.24005 -1.16495,0.29787 -0.33691,0.0578 -0.87792,0.10046 -1.20224,0.0947 -0.32432,-0.006 -0.69202,-0.0215 -0.81712,-0.0352 z m 2.43416,-1.58068 c 0.24865,-0.078 0.60469,-0.20938 0.7912,-0.29186 0.18651,-0.0825 0.52408,-0.27524 0.75015,-0.42834 0.22607,-0.15309 0.56703,-0.42543 0.75767,-0.60519 0.19065,-0.17976 0.47908,-0.50303 0.64096,-0.71837 0.16188,-0.21535 0.39318,-0.58783 0.514,-0.82774 0.12081,-0.23991 0.29775,-0.6932 0.39318,-1.00731 0.15345,-0.50505 0.17366,-0.68014 0.17465,-1.51342 9.8e-4,-0.76925 -0.0248,-1.03631 -0.14007,-1.45426 -0.0777,-0.28158 -0.24442,-0.72661 -0.37059,-0.98894 -0.12618,-0.26233 -0.40582,-0.71107 -0.62142,-0.99719 -0.23315,-0.30941 -0.60671,-0.69202 -0.92185,-0.94416 -0.29142,-0.23316 -0.7715,-0.54199 -1.06685,-0.68629 -0.29535,-0.14429 -0.76449,-0.32514 -1.04254,-0.40188 -0.41096,-0.11344 -0.68182,-0.13934 -1.44783,-0.13843 -0.83725,9.9e-4 -1.00714,0.0208 -1.52396,0.1777 -0.31992,0.0971 -0.80504,0.2928 -1.07805,0.43483 -0.27301,0.14204 -0.69082,0.41863 -0.92847,0.61465 -0.23765,0.19603 -0.59509,0.55346 -0.79431,0.79429 -0.19922,0.24083 -0.50386,0.7201 -0.67698,1.06505 -0.19991,0.39835 -0.36749,0.85543 -0.4593,1.25274 -0.12432,0.53799 -0.13969,0.74583 -0.10978,1.48486 0.024,0.59409 0.0761,0.99729 0.16871,1.30641 0.0737,0.24591 0.22012,0.63127 0.32545,0.85636 0.10534,0.22509 0.30748,0.58002 0.44922,0.78874 0.14174,0.20872 0.41927,0.54365 0.61674,0.7443 0.19746,0.20065 0.54928,0.50057 0.78182,0.66651 0.23253,0.16593 0.63744,0.40076 0.89979,0.52184 0.26236,0.12109 0.6671,0.2698 0.89943,0.33047 0.23232,0.0607 0.62711,0.12907 0.87731,0.15199 0.25019,0.0229 0.73271,0.0221 1.07226,-0.002 0.33956,-0.024 0.82081,-0.10743 1.06946,-0.18547 z m -2.53459,-1.71757 c -0.0972,-0.0972 -0.15776,-0.23047 -0.15502,-0.34118 0.002,-0.0999 0.0853,-0.62032 0.18397,-1.15645 0.17948,-0.97479 0.17948,-0.97479 -0.0609,-1.2402 -0.1322,-0.14597 -0.27682,-0.37589 -0.32138,-0.51092 -0.0446,-0.13503 -0.0679,-0.40424 -0.0518,-0.59824 0.0219,-0.2636 0.0831,-0.42918 0.2425,-0.65527 0.21325,-0.30254 0.21325,-0.30254 -0.3154,-1.86576 -0.29076,-0.85977 -0.52813,-1.61044 -0.52749,-1.66817 7.3e-4,-0.0577 0.0618,-0.18202 0.13584,-0.27619 0.0954,-0.12135 0.19536,-0.17123 0.34296,-0.17123 0.11455,0 0.27082,0.0438 0.34726,0.0973 0.10153,0.0711 0.28158,0.52517 0.66829,1.68535 0.52846,1.5854 0.52966,1.58806 0.73654,1.63115 0.11398,0.0237 0.33074,0.11417 0.4817,0.20097 0.1594,0.0917 0.34188,0.27288 0.43529,0.43229 0.0885,0.15095 0.18073,0.39889 0.20504,0.55097 0.0262,0.16354 0.0111,0.39474 -0.0368,0.5659 -0.0446,0.15917 -0.17925,0.40416 -0.2993,0.54441 -0.12006,0.14026 -0.33524,0.30182 -0.47819,0.35901 -0.17045,0.0682 -0.2714,0.15472 -0.29329,0.25135 -0.0184,0.081 -0.10753,0.57139 -0.19816,1.08965 -0.14234,0.81402 -0.18715,0.9622 -0.32918,1.08851 -0.0926,0.0824 -0.24926,0.14622 -0.3587,0.14622 -0.11964,0 -0.25558,-0.0613 -0.3538,-0.15951 z m 6.6562,2.73425 c -0.16514,-0.0445 -0.45143,-0.17791 -0.63622,-0.29649 -0.18478,-0.11857 -0.32696,-0.24259 -0.31596,-0.27559 0.011,-0.033 0.38502,-0.48043 0.83117,-0.99428 0.44614,-0.51386 0.83316,-0.93633 0.86004,-0.93884 0.0269,-0.003 0.18061,0.17439 0.34161,0.3931 0.16101,0.21871 0.3388,0.55609 0.39509,0.74973 0.0663,0.22814 0.0867,0.4446 0.058,0.61489 -0.0254,0.15057 -0.12712,0.35701 -0.2381,0.48342 -0.10655,0.12134 -0.30096,0.2504 -0.43206,0.28681 -0.13109,0.0364 -0.31146,0.0644 -0.40081,0.0622 -0.0894,-0.002 -0.29758,-0.0404 -0.46271,-0.0849 z m 10.54315,-6.43328 c -0.11648,-0.12398 -0.16358,-0.29975 -0.23944,-0.89355 -0.052,-0.40657 -0.16955,-1.1177 -0.26134,-1.5803 -0.0918,-0.4626 -0.26564,-1.18413 -0.38633,-1.60341 -0.12067,-0.41928 -0.3268,-1.04969 -0.45805,-1.40093 -0.13125,-0.35123 -0.36665,-0.93148 -0.5231,-1.28944 -0.15646,-0.35796 -0.48628,-1.02114 -0.73295,-1.47374 -0.24666,-0.45259 -0.64,-1.11336 -0.87408,-1.46837 -0.23408,-0.355 -0.68185,-0.97854 -0.99505,-1.38564 -0.31594,-0.41067 -1.10414,-1.2738 -1.77056,-1.93889 -1.06656,-1.06443 -1.20111,-1.22241 -1.20111,-1.41021 0,-0.11632 0.0542,-0.27144 0.12054,-0.3447 0.0862,-0.0953 0.2008,-0.1332 0.4025,-0.1332 0.25612,0 0.32815,0.0408 0.78601,0.44513 0.27723,0.24483 0.78383,0.73714 1.12578,1.09403 0.34195,0.35689 0.86833,0.95309 1.16974,1.3249 0.30141,0.3718 0.84046,1.11503 1.19788,1.65162 0.35743,0.5366 0.83472,1.3177 1.06065,1.73578 0.22594,0.41808 0.5687,1.1251 0.7617,1.57115 0.19301,0.44605 0.47025,1.15675 0.61609,1.57934 0.14585,0.42259 0.33392,1.01691 0.41795,1.32072 0.084,0.30381 0.21461,0.83019 0.2902,1.16975 0.0756,0.33955 0.19528,1.01215 0.26598,1.49467 0.0707,0.48252 0.1287,0.9883 0.12886,1.12396 2e-4,0.1755 -0.0457,0.29267 -0.15921,0.40616 -0.10627,0.10627 -0.23263,0.15951 -0.37859,0.15951 -0.14658,0 -0.26705,-0.0511 -0.36407,-0.15434 z m -24.9141,-1.30087 c -0.22975,-0.22611 -0.44739,-0.52965 -0.59614,-0.83141 -0.16908,-0.34301 -0.25467,-0.629 -0.30756,-1.02766 -0.0613,-0.46207 -0.0561,-0.63736 0.0321,-1.07226 0.0594,-0.29289 0.21764,-0.74689 0.3625,-1.03978 0.17322,-0.35023 0.38053,-0.64192 0.63526,-0.89385 0.20797,-0.20567 0.49143,-0.45046 0.62992,-0.54397 0.13848,-0.0935 0.43091,-0.24347 0.64985,-0.33326 0.28719,-0.11777 0.56356,-0.17225 0.9921,-0.1956 0.48215,-0.0263 0.67799,-0.007 1.03978,0.10315 0.24516,0.0745 0.4971,0.17339 0.55986,0.21969 0.10436,0.077 -0.0383,0.33422 -1.66838,3.00855 -0.98037,1.6084 -1.8241,2.93295 -1.87495,2.94344 -0.0508,0.0105 -0.25529,-0.14117 -0.45432,-0.33704 z m 21.48225,0.28484 c -0.0783,-0.0315 -0.18503,-0.12474 -0.23711,-0.20708 -0.0521,-0.0823 -0.1292,-0.41291 -0.17138,-0.73459 -0.0422,-0.32168 -0.15142,-0.90655 -0.24276,-1.29971 -0.0913,-0.39317 -0.26652,-1.00728 -0.38931,-1.36471 -0.1228,-0.35742 -0.40825,-1.03002 -0.63434,-1.49467 -0.2261,-0.46465 -0.60712,-1.13726 -0.84672,-1.49468 -0.23959,-0.35742 -0.60088,-0.85263 -0.80287,-1.10047 -0.20198,-0.24784 -0.6961,-0.77422 -1.09803,-1.16975 -0.66026,-0.64973 -0.73082,-0.74155 -0.73109,-0.9515 -2e-4,-0.15914 0.0471,-0.2769 0.1501,-0.37367 0.0994,-0.0934 0.23331,-0.1413 0.39495,-0.1413 0.22382,0 0.30806,0.0619 0.99414,0.73109 0.41227,0.4021 0.93865,0.96505 1.16972,1.25098 0.23107,0.28594 0.61439,0.81233 0.85182,1.16975 0.23743,0.35742 0.62819,1.04184 0.86837,1.52094 0.24404,0.48681 0.57961,1.30384 0.76068,1.85209 0.1782,0.53956 0.38317,1.27346 0.45549,1.63088 0.0723,0.35742 0.16144,0.89131 0.19805,1.18642 0.0417,0.3361 0.044,0.59593 0.006,0.69548 -0.0332,0.0874 -0.14796,0.2042 -0.25495,0.25952 -0.10699,0.0553 -0.21791,0.0987 -0.24649,0.0965 -0.0286,-0.002 -0.11606,-0.0299 -0.19439,-0.0615 z m -3.69469,-1.0037 c -0.0877,-0.0877 -0.15951,-0.23518 -0.15951,-0.32767 0,-0.0925 -0.0464,-0.39356 -0.10321,-0.66906 -0.0568,-0.27549 -0.18783,-0.72022 -0.29124,-0.98829 -0.10341,-0.26807 -0.32199,-0.71593 -0.48572,-0.99525 -0.17005,-0.29012 -0.54671,-0.76926 -0.8785,-1.11754 -0.45073,-0.47314 -0.58082,-0.65089 -0.58082,-0.79365 0,-0.10118 0.0468,-0.2508 0.10403,-0.3325 0.0572,-0.0817 0.1756,-0.17574 0.26306,-0.20899 0.10961,-0.0417 0.22367,-0.0332 0.36711,0.0273 0.11445,0.0482 0.42781,0.31856 0.69635,0.6007 0.26854,0.28214 0.62332,0.71769 0.78839,0.96788 0.16507,0.2502 0.37338,0.60112 0.46292,0.77983 0.0895,0.17871 0.25462,0.58538 0.36687,0.90372 0.11224,0.31833 0.24937,0.84121 0.30472,1.16196 0.0553,0.32075 0.0834,0.65167 0.0624,0.73538 -0.021,0.0837 -0.10185,0.2115 -0.17964,0.28397 -0.0838,0.0781 -0.23027,0.13177 -0.35959,0.13177 -0.14497,0 -0.27166,-0.0535 -0.37766,-0.15951 z m -6.30068,-4.88036 c -1.67988,-0.65858 -3.1219,-1.22715 -3.20448,-1.26348 -0.15016,-0.0661 -0.15016,-0.0661 0,-0.33732 0.0826,-0.14919 0.30245,-0.43672 0.48859,-0.63895 0.18615,-0.20223 0.50783,-0.45756 0.71485,-0.5674 0.20702,-0.10983 0.55186,-0.25065 0.76631,-0.31292 0.23998,-0.0697 0.60415,-0.11244 0.94703,-0.1112 0.32658,0.001 0.7165,0.0481 0.9423,0.11328 0.21185,0.0612 0.58988,0.21819 0.84008,0.34888 0.26449,0.13815 0.61811,0.40093 0.84482,0.62779 0.21445,0.2146 0.48404,0.56803 0.59909,0.78539 0.11505,0.21736 0.25395,0.56711 0.30868,0.77722 0.0547,0.21012 0.0971,0.55866 0.0943,0.77454 -0.003,0.21588 -0.0394,0.52193 -0.0812,0.68012 -0.0418,0.15818 -0.10524,0.29522 -0.14098,0.30454 -0.0358,0.009 -1.43944,-0.5219 -3.11933,-1.18049 z"
         id="path3597"
         inkscape:label="AlarmClock" /><path
         style="fill:#000000;stroke-width:0.999996"
         d="m 450.18433,232.60008 c -0.28425,-0.056 -0.83025,-0.25717 -1.21335,-0.447 -0.53182,-0.26353 -0.81698,-0.47391 -1.20591,-0.88968 -0.28017,-0.29951 -0.62151,-0.76663 -0.75853,-1.03808 -0.13703,-0.27144 -0.30474,-0.70703 -0.37271,-0.96797 -0.10843,-0.4163 -0.12358,-4.48717 -0.12358,-33.21978 0,-28.73262 0.0152,-32.80348 0.12358,-33.21978 0.068,-0.26095 0.23568,-0.69654 0.37271,-0.96798 0.13702,-0.27144 0.47836,-0.73857 0.75853,-1.03807 0.38608,-0.41274 0.67476,-0.62648 1.19261,-0.8831 0.37579,-0.1862 0.92179,-0.3897 1.21335,-0.45221 0.43751,-0.0938 3.17132,-0.11418 15.65057,-0.11659 10.52488,-0.002 15.25411,0.0244 15.56022,0.0868 0.24187,0.0494 0.63818,0.16175 0.88068,0.24976 0.2425,0.088 0.63461,0.28403 0.87137,0.43563 0.23676,0.15161 0.62872,0.49277 0.87103,0.75813 0.2423,0.26536 0.5508,0.70087 0.68557,0.96781 0.13474,0.26694 0.30059,0.69883 0.36856,0.95978 0.10843,0.4163 0.12358,4.48716 0.12358,33.21978 0,28.73261 -0.0152,32.80348 -0.12358,33.21978 -0.068,0.26094 -0.23382,0.69284 -0.36856,0.95977 -0.13476,0.26694 -0.44327,0.70246 -0.68557,0.96782 -0.2423,0.26536 -0.62727,0.60023 -0.8555,0.74417 -0.22822,0.14393 -0.62034,0.34135 -0.87137,0.43872 -0.25104,0.0974 -0.67803,0.21604 -0.94885,0.2637 -0.33133,0.0583 -5.42172,0.084 -15.56023,0.0785 -11.54252,-0.007 -15.18873,-0.032 -15.58461,-0.10999 z m 30.86705,-3.03906 c 0.16974,-0.0471 0.41735,-0.17721 0.55025,-0.28903 0.1329,-0.11183 0.30992,-0.34379 0.39337,-0.51549 0.14623,-0.30078 0.15177,-1.49461 0.15216,-32.71893 3.1e-4,-31.25724 -0.005,-32.41784 -0.15174,-32.71894 -0.0837,-0.17169 -0.26143,-0.40411 -0.39498,-0.51648 -0.13356,-0.11238 -0.38664,-0.24306 -0.56242,-0.29038 -0.21652,-0.0584 -5.177,-0.0791 -15.38333,-0.0645 -15.06375,0.0217 -15.06375,0.0217 -15.4162,0.2706 -0.19385,0.13693 -0.43018,0.39834 -0.52517,0.58091 -0.17271,0.33195 -0.17271,0.33195 -0.16996,32.73872 0.002,31.35755 0.007,32.41699 0.15625,32.72266 0.0844,0.17374 0.27653,0.40972 0.4269,0.52441 0.15036,0.11468 0.3785,0.24006 0.50699,0.27863 0.12849,0.0386 6.95563,0.0731 15.17143,0.0768 10.04096,0.004 15.03899,-0.0214 15.24645,-0.079 z m -15.91035,-6.18368 c -0.0913,-0.0211 -0.37137,-0.0784 -0.62241,-0.12715 -0.25104,-0.0488 -0.79253,-0.25055 -1.20333,-0.44829 -0.46817,-0.22537 -0.93826,-0.53323 -1.25973,-0.82498 -0.28206,-0.256 -0.64102,-0.64208 -0.79768,-0.85795 -0.15666,-0.21589 -0.37705,-0.56056 -0.48978,-0.76596 -0.11271,-0.20539 -0.28906,-0.61618 -0.39188,-0.91286 -0.13131,-0.37887 -0.20065,-0.81693 -0.23297,-1.4718 -0.0359,-0.72744 -0.014,-1.0649 0.0996,-1.53528 0.0801,-0.33159 0.24993,-0.83396 0.37741,-1.11638 0.12749,-0.28242 0.34507,-0.67813 0.48353,-0.87937 0.13845,-0.20124 0.43127,-0.55097 0.65071,-0.77719 0.21943,-0.22622 0.56703,-0.52568 0.77242,-0.66549 0.2054,-0.1398 0.57309,-0.35501 0.81709,-0.47825 0.244,-0.12323 0.72612,-0.2963 1.07137,-0.3846 0.40495,-0.10358 0.90829,-0.16056 1.41828,-0.16056 0.4406,0 1.03169,0.0586 1.33528,0.13237 0.2996,0.0728 0.8588,0.28215 1.24266,0.46524 0.56332,0.26867 0.83748,0.47124 1.42135,1.05021 0.61466,0.6095 0.7804,0.83586 1.10254,1.50573 0.23503,0.48873 0.4324,1.05542 0.51927,1.49098 0.10077,0.50521 0.12591,0.90313 0.0895,1.41639 -0.0279,0.39258 -0.1305,0.97268 -0.22808,1.28911 -0.0976,0.31643 -0.26269,0.74392 -0.36692,0.94999 -0.10424,0.20607 -0.36326,0.60578 -0.57561,0.88827 -0.21234,0.28247 -0.61762,0.69628 -0.9006,0.91957 -0.28301,0.22329 -0.69376,0.50972 -0.91278,0.63653 -0.21905,0.1268 -0.68584,0.32039 -1.03735,0.43021 -0.41668,0.13017 -0.9135,0.21189 -1.42749,0.23479 -0.43361,0.0193 -0.86307,0.0179 -0.95436,-0.003 z m 1.82051,-3.31273 c 0.23109,-0.10427 0.57709,-0.35278 0.76889,-0.55226 0.1918,-0.19946 0.43424,-0.54938 0.53873,-0.7776 0.14903,-0.32548 0.18927,-0.55807 0.18662,-1.07884 -0.002,-0.49232 -0.0487,-0.76419 -0.17863,-1.05193 -0.0964,-0.21341 -0.32966,-0.55554 -0.5184,-0.76028 -0.18871,-0.20474 -0.51222,-0.45174 -0.71893,-0.5489 -0.20668,-0.0971 -0.55896,-0.21139 -0.7828,-0.25384 -0.26387,-0.05 -0.57545,-0.0466 -0.88599,0.01 -0.26343,0.0478 -0.63335,0.17642 -0.82206,0.28584 -0.18869,0.10941 -0.50956,0.38408 -0.71301,0.61037 -0.24018,0.26714 -0.42188,0.57661 -0.51805,0.88239 -0.1061,0.33734 -0.13669,0.63068 -0.10783,1.03406 0.0249,0.34782 0.11372,0.7148 0.23233,0.95983 0.10563,0.21819 0.33342,0.53808 0.5062,0.71087 0.17279,0.17278 0.46859,0.39294 0.65733,0.48923 0.18875,0.0963 0.49839,0.20733 0.6881,0.24675 0.1897,0.0394 0.54796,0.052 0.79612,0.0279 0.24817,-0.0241 0.64028,-0.12907 0.87138,-0.23335 z m -13.06477,-30.71529 c -0.15943,-0.0691 -0.3777,-0.2077 -0.48506,-0.30795 -0.10736,-0.10024 -0.25034,-0.28826 -0.31772,-0.41782 -0.0674,-0.12955 -0.12253,-0.43433 -0.12253,-0.6773 0,-0.24296 0.0574,-0.55263 0.12743,-0.68817 0.07,-0.13553 0.24248,-0.34323 0.38311,-0.46156 0.14063,-0.11833 0.39404,-0.25524 0.56315,-0.30425 0.2144,-0.0621 3.8533,-0.0817 12.02182,-0.0644 11.71434,0.0246 11.71434,0.0246 12.03323,0.28241 0.17539,0.14177 0.38959,0.37842 0.47598,0.52589 0.0995,0.16977 0.15709,0.42602 0.15709,0.69854 0,0.23673 -0.0578,0.54157 -0.12845,0.67744 -0.0706,0.13585 -0.21654,0.32926 -0.32419,0.42978 -0.10767,0.10052 -0.33408,0.24056 -0.50316,0.3112 -0.27263,0.11392 -1.62424,0.12808 -11.94911,0.12519 -10.21066,-0.002 -11.67735,-0.0187 -11.93159,-0.12895 z m 0.16842,-8.5124 c -0.15808,-0.0456 -0.38886,-0.15527 -0.51282,-0.24355 -0.12397,-0.0883 -0.30794,-0.29404 -0.40882,-0.45727 -0.12407,-0.20074 -0.18544,-0.43645 -0.18966,-0.72844 -0.005,-0.32364 0.0481,-0.52438 0.21093,-0.80222 0.12809,-0.21857 0.35277,-0.44677 0.5478,-0.55638 0.33064,-0.18584 0.33064,-0.18584 12.13382,-0.18584 11.80317,0 11.80317,0 12.13381,0.18584 0.18991,0.10673 0.41913,0.33683 0.53854,0.54058 0.15921,0.27165 0.20658,0.46567 0.20225,0.82825 -0.004,0.37874 -0.0519,0.53894 -0.23679,0.80058 -0.12712,0.17989 -0.38051,0.40509 -0.56308,0.50044 -0.33168,0.17323 -0.34138,0.17338 -11.95025,0.18722 -7.54624,0.009 -11.71905,-0.0152 -11.90573,-0.0692 z m -0.16901,-8.62689 c -0.11411,-0.0453 -0.3135,-0.18305 -0.4431,-0.30595 -0.1296,-0.1229 -0.29098,-0.32945 -0.35862,-0.45901 -0.0677,-0.12956 -0.123,-0.43435 -0.123,-0.67731 0,-0.24296 0.0551,-0.54775 0.12253,-0.67731 0.0674,-0.12956 0.2106,-0.3178 0.31826,-0.41832 0.10766,-0.10052 0.33407,-0.24056 0.50315,-0.3112 0.27249,-0.11386 1.62734,-0.12844 11.93104,-0.12844 10.30369,0 11.65854,0.0146 11.93103,0.12844 0.16908,0.0706 0.39549,0.21068 0.50316,0.3112 0.10765,0.10052 0.25354,0.29392 0.32419,0.42979 0.0706,0.13585 0.12845,0.43549 0.12845,0.66584 0,0.23035 -0.058,0.52999 -0.12894,0.66584 -0.071,0.13587 -0.23496,0.34735 -0.36455,0.46996 -0.1296,0.12262 -0.34076,0.26266 -0.46925,0.31121 -0.16127,0.0609 -3.86146,0.0866 -11.95024,0.083 -7.55649,-0.003 -11.79031,-0.0345 -11.92411,-0.0877 z"
         id="path3611" /><rect
         style="font-variation-settings:normal;opacity:1;fill:none;fill-opacity:1;fill-rule:evenodd;stroke:#075295;stroke-width:3.99999;stroke-linecap:butt;stroke-linejoin:miter;stroke-miterlimit:4;stroke-dasharray:8, 3.99999;stroke-dashoffset:0;stroke-opacity:1;stop-color:#000000;stop-opacity:1"
         id="rect941"
         width="206.688"
         height="191.46085"
         x="298.98822"
         y="52.115623"
         rx="10"
         ry="9.9999981" /><text
         xml:space="preserve"
         style="font-size:29.3904px;font-family:sans-serif;-inkscape-font-specification:'sans-serif, Normal';text-align:center;text-anchor:middle;display:inline;fill:#000000;fill-opacity:1;fill-rule:evenodd;stroke:none;stroke-width:3;stroke-dasharray:none;stroke-opacity:1;paint-order:stroke markers fill"
         x="403.33997"
         y="75.6968"
         id="text3846-1"
         inkscape:label="LAN title"><tspan
           sodipodi:role="line"
           id="tspan3844-5"
           style="font-style:normal;font-variant:normal;font-weight:normal;font-stretch:normal;font-size:29.3904px;font-family:Calibri;-inkscape-font-specification:'Calibri, Normal';font-variant-ligatures:normal;font-variant-caps:normal;font-variant-numeric:normal;font-variant-east-asian:normal;fill:#000000;fill-opacity:1;stroke-width:3"
           x="403.33997"
           y="75.6968">LAN</tspan></text><path
         style="fill:none;fill-opacity:1;fill-rule:evenodd;stroke:#d43737;stroke-width:2;stroke-dasharray:none;stroke-dashoffset:0;stroke-opacity:1;marker-end:url(#TriangleStart);paint-order:stroke markers fill"
         d="m 351.1233,139.95179 72.81044,-21.38473"
         id="path2027" /><path
         style="fill:none;fill-opacity:1;fill-rule:evenodd;stroke:#d43737;stroke-width:2;stroke-dasharray:none;stroke-dashoffset:0;stroke-opacity:1;marker-end:url(#TriangleStart-6);paint-order:stroke markers fill"
         d="m 351.1228,156.14414 72.81044,21.38473"
         id="path2027-2" /><text
         xml:space="preserve"
         style="font-style:normal;font-variant:normal;font-weight:normal;font-stretch:normal;font-size:14.1111px;font-family:Calibri;-inkscape-font-specification:'Calibri, Normal';font-variant-ligatures:normal;font-variant-caps:normal;font-variant-numeric:normal;font-variant-east-asian:normal;text-align:center;text-anchor:middle;display:none;fill:#000000;fill-opacity:1;fill-rule:evenodd;stroke:none;stroke-width:1.1;stroke-dasharray:none;stroke-dashoffset:0;stroke-opacity:1;paint-order:stroke markers fill"
         x="466.49274"
         y="114.60472"
         id="text2637"
         inkscape:label="zzz2"><tspan
           sodipodi:role="line"
           id="tspan2635"
           style="font-style:normal;font-variant:normal;font-weight:normal;font-stretch:normal;font-size:14.1111px;font-family:Calibri;-inkscape-font-specification:'Calibri, Normal';font-variant-ligatures:normal;font-variant-caps:normal;font-variant-numeric:normal;font-variant-east-asian:normal;fill:#000000;fill-opacity:1;stroke:none;stroke-width:1.1;stroke-dasharray:none;stroke-opacity:1"
           x="466.49274"
           y="114.60472">z<tspan
   style="font-style:normal;font-variant:normal;font-weight:normal;font-stretch:normal;font-size:17.6389px;font-family:Calibri;-inkscape-font-specification:'Calibri, Normal';font-variant-ligatures:normal;font-variant-caps:normal;font-variant-numeric:normal;font-variant-east-asian:normal;fill:#000000;fill-opacity:1"
   id="tspan2897">z</tspan><tspan
   style="font-style:normal;font-variant:normal;font-weight:normal;font-stretch:normal;font-size:21.1667px;font-family:Calibri;-inkscape-font-specification:'Calibri, Normal';font-variant-ligatures:normal;font-variant-caps:normal;font-variant-numeric:normal;font-variant-east-asian:normal;fill:#000000;fill-opacity:1"
   id="tspan2899">z</tspan></tspan></text><text
         xml:space="preserve"
         style="font-style:normal;font-variant:normal;font-weight:normal;font-stretch:normal;font-size:14.1111px;font-family:Calibri;-inkscape-font-specification:'Calibri, Normal';font-variant-ligatures:normal;font-variant-caps:normal;font-variant-numeric:normal;font-variant-east-asian:normal;text-align:center;text-anchor:middle;display:none;fill:#000000;fill-opacity:1;fill-rule:evenodd;stroke:none;stroke-width:1.1;stroke-dasharray:none;stroke-dashoffset:0;stroke-opacity:1;paint-order:stroke markers fill"
         x="488.25012"
         y="157.27771"
         id="text2637-8"
         inkscape:label="zzz1"><tspan
           sodipodi:role="line"
           id="tspan2635-1"
           style="font-style:normal;font-variant:normal;font-weight:normal;font-stretch:normal;font-size:14.1111px;font-family:Calibri;-inkscape-font-specification:'Calibri, Normal';font-variant-ligatures:normal;font-variant-caps:normal;font-variant-numeric:normal;font-variant-east-asian:normal;fill:#000000;fill-opacity:1;stroke:none;stroke-width:1.1;stroke-dasharray:none;stroke-opacity:1"
           x="488.25012"
           y="157.27771">z<tspan
   style="font-style:normal;font-variant:normal;font-weight:normal;font-stretch:normal;font-size:17.6389px;font-family:Calibri;-inkscape-font-specification:'Calibri, Normal';font-variant-ligatures:normal;font-variant-caps:normal;font-variant-numeric:normal;font-variant-east-asian:normal;fill:#000000;fill-opacity:1"
   id="tspan2897-2">z</tspan><tspan
   style="font-style:normal;font-variant:normal;font-weight:normal;font-stretch:normal;font-size:21.1667px;font-family:Calibri;-inkscape-font-specification:'Calibri, Normal';font-variant-ligatures:normal;font-variant-caps:normal;font-variant-numeric:normal;font-variant-east-asian:normal;fill:#000000;fill-opacity:1"
   id="tspan2899-9">z</tspan></tspan></text><path
         style="fill:#000000;stroke-width:0.999992"
         d="m 242.796,133.05514 c -0.3824,-0.0711 -0.97772,-0.28395 -1.09778,-0.39259 -0.0434,-0.0393 -0.0964,-0.0714 -0.11784,-0.0714 -0.0214,0 -0.18712,-0.10987 -0.36828,-0.24416 -0.57986,-0.42987 -1.03447,-1.0656 -1.29454,-1.8103 l -0.14157,-0.40539 -0.0135,-4.33167 c -0.0131,-4.19499 -0.0103,-4.34408 0.0841,-4.72486 0.33704,-1.35806 1.41047,-2.43671 2.74279,-2.75612 0.3424,-0.0821 0.57498,-0.0963 1.58261,-0.0966 l 1.18121,-3.4e-4 v -10.20629 c 0,-8.452527 0.0113,-10.233205 0.0657,-10.363025 0.37771,-0.901334 1.64359,-0.922754 2.06728,-0.035 0.0721,0.15092 0.0831,0.452807 0.0963,2.630325 l 0.0149,2.45984 -0.81765,-0.80371 -0.81765,-0.80371 0.81589,0.82859 0.81589,0.82859 v 7.33209 7.33209 l -0.86817,0.86332 c -0.47749,0.47482 -0.86136,0.87012 -0.85305,0.87842 0.009,0.008 0.39881,-0.37002 0.86779,-0.84074 l 0.85268,-0.85584 4e-4,0.3775 3.8e-4,0.37751 h 16.02556 16.02555 v -0.48998 c 0,-0.37901 0.0138,-0.48169 0.0609,-0.4534 0.0486,0.0292 0.0485,0.0214 -10e-5,-0.0387 -0.0893,-0.11031 -0.0889,-18.329564 4.4e-4,-18.275934 0.0395,0.0238 0.037,0.007 -0.007,-0.0471 -0.10656,-0.131327 -0.0489,-1.071954 0.0812,-1.325101 0.208,-0.404577 0.56979,-0.628867 1.00937,-0.625757 0.42211,0.003 0.79145,0.21872 0.99073,0.578707 0.0744,0.13448 0.0828,0.963444 0.10525,10.399545 l 0.0244,10.25343 1.29081,0.029 c 1.42714,0.032 1.60731,0.0619 2.21376,0.36684 0.90191,0.45356 1.5729,1.22081 1.91159,2.1858 l 0.13677,0.38969 0.0135,4.35604 c 0.0131,4.24531 0.0109,4.36606 -0.0858,4.74922 -0.0546,0.21624 -0.17266,0.5466 -0.26238,0.73413 -0.18861,0.39422 -0.59735,0.96656 -0.66182,0.92671 -0.0242,-0.0149 -0.0599,-0.002 -0.0792,0.0299 -0.0238,0.0386 -0.0131,0.0444 0.0331,0.0176 0.0376,-0.0217 0.004,0.0297 -0.0747,0.11426 -0.16371,0.17584 -0.23528,0.20874 -0.0959,0.0441 0.051,-0.0603 -0.023,0.003 -0.16443,0.14067 -0.28609,0.27835 -0.81615,0.56096 -1.35019,0.71988 l -0.34097,0.10146 -20.62864,0.008 c -16.74859,0.006 -20.69277,-0.004 -20.9696,-0.0554 z m 34.58402,-0.56144 c -0.32065,-0.32149 -0.59395,-0.58452 -0.60734,-0.58452 -0.0134,0 0.23799,0.26303 0.55864,0.58452 0.32064,0.32148 0.59396,0.58451 0.60735,0.58451 0.0134,0 -0.238,-0.26303 -0.55865,-0.58451 z m -9.66269,0.45056 c 0.0606,-0.0772 0.0589,-0.079 -0.0184,-0.0184 -0.0469,0.0367 -0.0853,0.0751 -0.0853,0.0853 0,0.0401 0.04,0.0143 0.10363,-0.0669 z m -17.97396,-0.14613 c 0.0606,-0.0772 0.0589,-0.079 -0.0184,-0.0184 -0.0469,0.0367 -0.0853,0.0751 -0.0853,0.0853 0,0.0401 0.0401,0.0143 0.10364,-0.0669 z m 18.36364,-0.24354 c 0.0606,-0.0773 0.0589,-0.079 -0.0184,-0.0184 -0.0469,0.0367 -0.0853,0.0751 -0.0853,0.0853 0,0.0401 0.0401,0.0143 0.10363,-0.0669 z m -17.97395,-0.14613 c 0.0606,-0.0773 0.0589,-0.079 -0.0184,-0.0184 -0.0469,0.0367 -0.0853,0.0751 -0.0853,0.0853 0,0.0401 0.0401,0.0143 0.10363,-0.0669 z m -8.77399,-0.0768 c 0,-0.009 -0.0603,-0.069 -0.13396,-0.13396 l -0.13396,-0.11808 0.1181,0.13395 c 0.11037,0.1252 0.14982,0.15629 0.14982,0.11809 z m 27.13761,-0.1668 c 0.0606,-0.0772 0.0589,-0.079 -0.0184,-0.0184 -0.0469,0.0367 -0.0853,0.0751 -0.0853,0.0853 0,0.0401 0.0401,0.0143 0.10364,-0.0669 z m -17.97395,-0.14613 c 0.0606,-0.0772 0.0589,-0.079 -0.0184,-0.0184 -0.0469,0.0367 -0.0853,0.0751 -0.0853,0.0853 0,0.0401 0.0401,0.0143 0.10363,-0.0669 z m 33.90292,-0.49753 c 0.76176,-0.23542 1.30494,-0.81057 1.50528,-1.5939 0.0904,-0.35342 0.0951,-0.56266 0.0951,-4.22752 0,-2.55893 -0.0178,-3.9529 -0.0528,-4.14473 -0.16641,-0.91109 -0.90821,-1.65289 -1.81931,-1.81931 -0.40889,-0.0747 -40.65999,-0.0747 -41.0689,0 -0.65014,0.11875 -1.32434,0.61296 -1.5973,1.17087 -0.27445,0.56096 -0.2769,0.60701 -0.26278,4.92509 0.0124,3.76791 0.0174,3.97146 0.107,4.22646 0.24732,0.70443 0.79433,1.24583 1.48044,1.46525 0.26444,0.0846 1.12637,0.0883 20.78979,0.0908 20.25529,0.003 20.51781,8.8e-4 20.82347,-0.0931 z m -38.12253,-4.06128 c -0.3041,-0.10052 -0.50439,-0.21839 -0.73966,-0.43525 -0.95919,-0.88415 -0.72014,-2.46014 0.46115,-3.04023 0.25396,-0.12471 0.32573,-0.13677 0.81432,-0.13677 0.49697,0 0.55639,0.0104 0.81989,0.14395 0.72671,0.36822 1.15463,1.20624 1.00845,1.97493 -0.11929,0.62727 -0.49302,1.11836 -1.0635,1.39747 -0.21755,0.10644 -0.35091,0.13478 -0.68785,0.14618 -0.25404,0.009 -0.49438,-0.0111 -0.6128,-0.0503 z m 23.36441,-0.47414 c -0.52834,-0.26402 -0.79866,-0.71343 -0.8035,-1.33584 -0.0104,-1.35113 1.6955,-1.98765 2.59338,-0.96759 0.63482,0.72119 0.40904,1.87814 -0.45032,2.30757 -0.24777,0.12381 -0.34767,0.14567 -0.66565,0.14567 -0.32026,0 -0.41727,-0.0216 -0.67391,-0.14981 z m 5.32571,0.0571 c -0.31056,-0.14429 -0.59034,-0.42127 -0.75167,-0.74413 -0.30824,-0.61684 -0.14403,-1.3697 0.391,-1.79262 0.31329,-0.24764 0.52846,-0.31698 0.96955,-0.3124 0.27522,0.003 0.41692,0.0302 0.57453,0.11104 1.13872,0.58373 1.16973,2.12177 0.054,2.6793 -0.26032,0.13008 -0.35537,0.15133 -0.67286,0.15041 -0.25612,-5.7e-4 -0.42959,-0.0289 -0.56456,-0.0916 z m 5.32224,0.0465 c -0.39046,-0.12436 -0.80296,-0.5373 -0.93016,-0.93116 -0.23895,-0.73985 0.0839,-1.51314 0.77194,-1.84927 0.33681,-0.16454 0.91668,-0.16587 1.25282,-0.003 0.90427,0.43843 1.14137,1.59887 0.48016,2.35004 -0.281,0.31923 -0.57959,0.45113 -1.05182,0.46462 -0.21431,0.006 -0.44964,-0.008 -0.52294,-0.0313 z m -39.3461,-3.00833 c 0,-0.0366 -0.0437,0.003 -0.24558,0.21715 l -0.21716,0.23138 0.23138,-0.21716 c 0.12725,-0.11944 0.23136,-0.22356 0.23136,-0.23137 z m 45.39762,-0.17874 c 0,-0.0102 -0.0384,-0.0485 -0.0853,-0.0853 -0.0772,-0.0606 -0.079,-0.0589 -0.0184,0.0184 0.0636,0.0812 0.10364,0.10695 0.10364,0.0669 z m -40.86139,-4.35332 c 0.0606,-0.0772 0.0589,-0.079 -0.0184,-0.0184 -0.0469,0.0367 -0.0853,0.0751 -0.0853,0.0853 0,0.0401 0.04,0.0143 0.10364,-0.0669 z m 17.38943,0 c 0.0606,-0.0772 0.0589,-0.079 -0.0184,-0.0184 -0.0469,0.0367 -0.0853,0.0751 -0.0853,0.0853 0,0.0401 0.0401,0.0143 0.10363,-0.0669 z m 18.36364,-0.24355 c 0.0606,-0.0772 0.0589,-0.079 -0.0184,-0.0184 -0.0469,0.0367 -0.0853,0.0751 -0.0853,0.0853 0,0.0401 0.0401,0.0143 0.10363,-0.0669 z m 0.48088,-0.029 c 0,-0.009 -0.0493,-0.0585 -0.10959,-0.1096 l -0.10961,-0.0928 0.0928,0.1096 c 0.0872,0.10299 0.1264,0.13176 0.1264,0.0928 z m -18.45483,-0.11715 c 0.0606,-0.0772 0.0589,-0.079 -0.0184,-0.0184 -0.0469,0.0367 -0.0853,0.0751 -0.0853,0.0853 0,0.04 0.0401,0.0143 0.10364,-0.0669 z m 18.38177,-0.25573 c 0.0485,-0.0536 0.0772,-0.0974 0.0638,-0.0974 -0.0134,0 -0.0641,0.0438 -0.11252,0.0974 -0.0485,0.0536 -0.0772,0.0974 -0.0638,0.0974 0.0134,0 0.0641,-0.0438 0.11253,-0.0974 z m -0.36533,-0.0671 c 0,-0.0102 -0.0384,-0.0485 -0.0853,-0.0853 -0.0773,-0.0606 -0.079,-0.0589 -0.0184,0.0184 0.0636,0.0812 0.10363,0.10694 0.10363,0.0669 z m -17.61264,-0.0725 c 0.0143,-0.0232 -0.0227,-0.0835 -0.0824,-0.13395 -0.10817,-0.0915 -0.10822,-0.0915 -0.0231,0.01 0.047,0.0557 0.0707,0.11603 0.0528,0.13395 -0.0179,0.0179 -0.0192,0.0326 -0.003,0.0326 0.0163,0 0.0414,-0.019 0.0557,-0.0422 z m 18.3495,-0.23787 c 0.0606,-0.0773 0.0589,-0.079 -0.0184,-0.0184 -0.0812,0.0636 -0.10694,0.10363 -0.0669,0.10363 0.0102,0 0.0485,-0.0384 0.0853,-0.0853 z m -17.97395,-0.14614 c 0.0606,-0.0772 0.0589,-0.079 -0.0184,-0.0184 -0.0469,0.0368 -0.0853,0.0751 -0.0853,0.0853 0,0.04 0.0401,0.0143 0.10364,-0.0669 z m 16.84741,0.0669 c 0,-0.0102 -0.0384,-0.0485 -0.0853,-0.0853 -0.0772,-0.0606 -0.079,-0.0589 -0.0184,0.0184 0.0636,0.0812 0.10364,0.10694 0.10364,0.0669 z m -0.38968,-0.38968 c 0,-0.0102 -0.0384,-0.0485 -0.0853,-0.0853 -0.0773,-0.0606 -0.079,-0.0589 -0.0184,0.0184 0.0636,0.0812 0.10363,0.10693 0.10363,0.0669 z m -0.38967,-0.38968 c 0,-0.0102 -0.0384,-0.0485 -0.0853,-0.0853 -0.0772,-0.0606 -0.079,-0.0589 -0.0184,0.0184 0.0636,0.0812 0.10364,0.10694 0.10364,0.0669 z m 0.006,-15.26434 c 0.0606,-0.0772 0.0589,-0.079 -0.0184,-0.0184 -0.0469,0.0367 -0.0853,0.0751 -0.0853,0.0853 0,0.0401 0.0401,0.0143 0.10363,-0.0669 z m 0.38968,-0.38968 c 0.0606,-0.0772 0.0589,-0.079 -0.0184,-0.0184 -0.0469,0.0367 -0.0853,0.0751 -0.0853,0.0853 0,0.04 0.0401,0.0143 0.10363,-0.0669 z m 0.38968,-0.38968 c 0.0606,-0.0773 0.0589,-0.079 -0.0184,-0.0184 -0.0469,0.0367 -0.0853,0.0751 -0.0853,0.0853 0,0.04 0.0401,0.0143 0.10364,-0.0669 z m 0.38968,-0.38967 c 0.0606,-0.0772 0.0589,-0.079 -0.0184,-0.0184 -0.0469,0.0367 -0.0852,0.0751 -0.0852,0.0853 0,0.0401 0.0401,0.0143 0.10363,-0.0669 z m -35.46527,-0.27796 c -0.0323,-0.039 -0.0447,-0.0938 -0.0274,-0.12177 0.0521,-0.0842 -0.002,-0.0573 -0.098,0.0486 -0.0724,0.0799 -0.0749,0.0937 -0.0125,0.0698 0.0427,-0.0164 0.0921,-0.006 0.10974,0.0223 0.0177,0.0287 0.0445,0.0521 0.0596,0.0521 0.0151,0 8.8e-4,-0.0319 -0.0314,-0.0709 z m 35.848,-0.0466 c -0.0316,-0.0315 -0.0645,-0.0315 -0.096,0 -0.0316,0.0316 -0.0151,0.0479 0.048,0.0479 0.0631,0 0.0796,-0.0165 0.0479,-0.0479 z m -36.09332,-0.19306 c 0,-0.0102 -0.0384,-0.0485 -0.0853,-0.0853 -0.0772,-0.0606 -0.079,-0.0589 -0.0184,0.0184 0.0636,0.0812 0.10363,0.10695 0.10363,0.0669 z m 35.70434,-0.19484 c 0,-0.0102 -0.0384,-0.0485 -0.0853,-0.0853 -0.0773,-0.0606 -0.079,-0.0589 -0.0184,0.0184 0.0636,0.0812 0.10363,0.10695 0.10363,0.0669 z m -0.38967,-0.38968 c 0,-0.0102 -0.0384,-0.0485 -0.0853,-0.0852 -0.0772,-0.0606 -0.079,-0.0589 -0.0184,0.0184 0.0636,0.0812 0.10364,0.10694 0.10364,0.0669 z m -0.38968,-0.389667 c 0,-0.0102 -0.0384,-0.0485 -0.0853,-0.0853 -0.0773,-0.0606 -0.079,-0.0589 -0.0184,0.0184 0.0636,0.0812 0.10363,0.10694 0.10363,0.0669 z m -0.38968,-0.389677 c 0,-0.0102 -0.0384,-0.0485 -0.0853,-0.0853 -0.0772,-0.0606 -0.079,-0.0589 -0.0184,0.0184 0.0636,0.0812 0.10364,0.10694 0.10364,0.0669 z m -17.09704,10.253044 c -0.62198,-0.2011 -1.0528,-0.55876 -1.31044,-1.08793 -0.69371,-1.4248 0.31874,-3.05799 1.89575,-3.05799 1.0499,0 1.91558,0.73439 2.09757,1.77942 0.14509,0.83312 -0.28462,1.7439 -1.02835,2.17967 -0.46571,0.27286 -1.14956,0.35009 -1.65453,0.18683 z m -4.06717,-4.75846 c -0.32596,-0.16997 -0.51156,-0.46905 -0.51156,-0.82439 0,-0.30762 0.13632,-0.54757 0.49724,-0.8753 1.1791,-1.07065 2.66453,-1.6878 4.31,-1.7907 0.16588,-0.0103 0.29077,-8.8e-4 0.27755,0.0201 -0.0132,0.0214 0.0103,0.0257 0.0522,0.01 0.0419,-0.0161 0.11303,5.7e-4 0.15801,0.0371 0.0696,0.0564 0.0755,0.0561 0.0404,-0.003 -0.0351,-0.0583 0.0362,-0.0639 0.46558,-0.0368 1.40928,0.0888 2.96256,0.76865 4.03347,1.76536 0.39471,0.36738 0.4921,0.53923 0.4921,0.86839 0,0.27287 -0.0671,0.45327 -0.23446,0.63014 -0.19039,0.20123 -0.36244,0.27573 -0.63672,0.27573 -0.32254,0 -0.46884,-0.0618 -0.73433,-0.31011 -1.11558,-1.0435 -2.61237,-1.56268 -4.04573,-1.4033 -1.16433,0.12948 -2.04297,0.51736 -2.93921,1.29756 -0.19129,0.16654 -0.39568,0.32823 -0.4542,0.35932 -0.1523,0.0809 -0.59878,0.0692 -0.77027,-0.0203 z m 6.79492,-1.45166 c 0,-0.0102 -0.0384,-0.0485 -0.0853,-0.0853 -0.0772,-0.0606 -0.079,-0.0589 -0.0184,0.0184 0.0636,0.0812 0.10363,0.10695 0.10363,0.0669 z m -0.38967,-0.38967 c 0,-0.0102 -0.0384,-0.0485 -0.0853,-0.0853 -0.0772,-0.0606 -0.079,-0.0589 -0.0184,0.0184 0.0636,0.0812 0.10363,0.10693 0.10363,0.0669 z m -0.38968,-0.38969 c 0,-0.0102 -0.0384,-0.0485 -0.0853,-0.0853 -0.0772,-0.0606 -0.079,-0.0589 -0.0184,0.0184 0.0636,0.0812 0.10364,0.10694 0.10364,0.0669 z m -0.38968,-0.38968 c 0,-0.0102 -0.0384,-0.0485 -0.0853,-0.0853 -0.0772,-0.0606 -0.079,-0.0589 -0.0184,0.0184 0.0636,0.0812 0.10364,0.10695 0.10364,0.0669 z m -0.38969,-0.38968 c 0,-0.0102 -0.0384,-0.0485 -0.0853,-0.0853 -0.0772,-0.0606 -0.079,-0.0589 -0.0184,0.0184 0.0636,0.0812 0.10363,0.10695 0.10363,0.0669 z m -8.10118,0.0663 c -0.34498,-0.10355 -0.66295,-0.50771 -0.66552,-0.84594 -0.003,-0.30891 0.11303,-0.53359 0.43608,-0.8492 1.66196,-1.623651 4.02715,-2.743525 6.40658,-3.033402 0.6243,-0.0761 2.05108,-0.0772 2.67905,-0.003 1.88621,0.225507 3.88162,1.023894 5.37538,2.150748 0.64412,0.485907 1.26343,1.067824 1.3694,1.286724 0.38731,0.80009 -0.44227,1.61564 -1.23252,1.21168 -0.076,-0.0388 -0.29642,-0.2174 -0.48994,-0.39682 -1.319,-1.223 -2.93822,-2.023104 -4.76743,-2.355754 -0.84993,-0.15457 -2.33474,-0.15542 -3.17748,-0.002 -1.89061,0.344547 -3.43131,1.119114 -4.8779,2.452294 -0.42322,0.39003 -0.69965,0.49048 -1.0557,0.38361 z m 5.32472,-2.842734 c 0,-0.0102 -0.0384,-0.0485 -0.0853,-0.0853 -0.0772,-0.0606 -0.079,-0.0589 -0.0184,0.0184 0.0636,0.0812 0.10364,0.10695 0.10364,0.0669 z m -0.34096,-0.340967 c 0,-0.0102 -0.0384,-0.0485 -0.0853,-0.0853 -0.0772,-0.0606 -0.079,-0.0589 -0.0184,0.0184 0.0636,0.0812 0.10363,0.10694 0.10363,0.0669 z m -0.38969,-0.389677 c 0,-0.0102 -0.0384,-0.0485 -0.0853,-0.0853 -0.0772,-0.0606 -0.079,-0.0589 -0.0184,0.0184 0.0636,0.0812 0.10363,0.106947 0.10363,0.0669 z m -0.43838,-0.43838 c 0,-0.0102 -0.0384,-0.0485 -0.0853,-0.0853 -0.0772,-0.0606 -0.079,-0.0589 -0.0184,0.0184 0.0636,0.0812 0.10363,0.10693 0.10363,0.0669 z m -7.28415,0.949737 c -0.48492,-0.22027 -0.68151,-0.798277 -0.43418,-1.276564 0.13209,-0.25542 1.32458,-1.300764 2.14104,-1.876828 2.9281,-2.066006 6.55056,-3.069636 10.08805,-2.794996 2.0488,0.15906 3.82259,0.64248 5.6653,1.54399 1.23512,0.60426 2.10452,1.170606 3.17044,2.06532 0.74317,0.623797 1.09662,1.000684 1.17087,1.248494 0.21327,0.711824 -0.52222,1.393411 -1.19862,1.110794 -0.0939,-0.0393 -0.41653,-0.29359 -0.71691,-0.565207 -2.09457,-1.894051 -4.41539,-3.011225 -7.19505,-3.463501 -0.89383,-0.14543 -3.03235,-0.1602 -3.89679,-0.0269 -1.61305,0.24873 -2.88914,0.648426 -4.26211,1.334973 -1.23088,0.615487 -2.08498,1.210131 -3.22001,2.241795 -0.61529,0.559267 -0.88382,0.653137 -1.31203,0.45864 z"
         id="path856"
         inkscape:label="Router"
         transform="translate(0,22.848076)" /><path
         style="fill:#d43737;fill-opacity:1;fill-rule:evenodd;stroke:#d43737;stroke-width:1.2;stroke-dasharray:none;stroke-dashoffset:0;stroke-opacity:1;marker-end:url(#TriangleStart-2);paint-order:stroke markers fill"
         d="m 287.4563,132.643 h 24.26354"
         id="path3273-1"
         inkscape:label="RouterWakeRequest"
         transform="translate(0,22.848076)" /><path
         style="fill:#008000;fill-opacity:1;fill-rule:evenodd;stroke:#008000;stroke-width:1.2;stroke-dasharray:none;stroke-dashoffset:0;stroke-opacity:1;marker-end:url(#TriangleStart);paint-order:stroke markers fill"
         d="M 315.79055,120.58784 H 291.52701"
         id="path3273"
         inkscape:label="RouterWebPortForward"
         transform="translate(0,22.848076)" /></g><path
       style="fill:#d43737;fill-opacity:1;fill-rule:evenodd;stroke:#d43737;stroke-width:1.5;stroke-dasharray:none;stroke-dashoffset:0;stroke-opacity:1;marker-end:url(#TriangleStart-2-4);paint-order:stroke markers fill"
       d="M 22.472854,125.00001 H 80.011233"
       id="path3273-1-3"
       inkscape:label="WakeRequest" /><text
       xml:space="preserve"
       style="font-style:normal;font-variant:normal;font-weight:normal;font-stretch:normal;font-size:21.1667px;font-family:Calibri;-inkscape-font-specification:'Calibri, Normal';font-variant-ligatures:normal;font-variant-caps:normal;font-variant-numeric:normal;font-variant-east-asian:normal;text-align:center;text-anchor:middle;fill:#000000;fill-opacity:1;fill-rule:evenodd;stroke:none;stroke-width:0.5;stroke-dasharray:none;stroke-dashoffset:0;stroke-opacity:1;paint-order:stroke markers fill"
       x="271.27209"
       y="146.62186"
       id="text3976-3"><tspan
         sodipodi:role="line"
         style="font-style:normal;font-variant:normal;font-weight:normal;font-stretch:normal;font-size:10.5833px;font-family:Calibri;-inkscape-font-specification:'Calibri, Normal';font-variant-ligatures:normal;font-variant-caps:normal;font-variant-numeric:normal;font-variant-east-asian:normal;stroke:none;stroke-width:0.5;stroke-dasharray:none;stroke-opacity:1"
         x="271.27209"
         y="146.62186"
         id="tspan3978-9">Port-Forward</tspan></text><text
       xml:space="preserve"
       style="font-style:normal;font-variant:normal;font-weight:normal;font-stretch:normal;font-size:21.1667px;font-family:Calibri;-inkscape-font-specification:'Calibri, Normal';font-variant-ligatures:normal;font-variant-caps:normal;font-variant-numeric:normal;font-variant-east-asian:normal;text-align:center;text-anchor:middle;fill:#000000;fill-opacity:1;fill-rule:evenodd;stroke:none;stroke-width:0.5;stroke-dasharray:none;stroke-dashoffset:0;stroke-opacity:1;paint-order:stroke markers fill"
       x="339.99023"
       y="146.98695"
       id="text3976-3-8"><tspan
         sodipodi:role="line"
         style="font-style:normal;font-variant:normal;font-weight:normal;font-stretch:normal;font-size:10.5833px;font-family:Calibri;-inkscape-font-specification:'Calibri, Normal';font-variant-ligatures:normal;font-variant-caps:normal;font-variant-numeric:normal;font-variant-east-asian:normal;stroke:none;stroke-width:0.5;stroke-dasharray:none;stroke-opacity:1"
         x="339.99023"
         y="146.98695"
         id="tspan3978-9-4">Esp8266</tspan></text><text
       xml:space="preserve"
       style="font-size:9.525px;font-family:Calibri;-inkscape-font-specification:'Calibri, Normal';text-align:center;text-anchor:middle;fill:#000000;fill-opacity:1;fill-rule:evenodd;stroke-width:0.499999;paint-order:stroke markers fill"
       x="52.20787"
       y="137.16302"
       id="text993"><tspan
         sodipodi:role="line"
         id="tspan991"
         style="fill:#000000;fill-opacity:1;stroke-width:0.5"
         x="52.20787"
         y="137.16302">Wake Request</tspan></text></g></svg>
